<svg width="204" height="84" viewBox="0 0 204 84" xmlns="http://www.w3.org/2000/svg"><title>logo</title><g fill="none" fill-rule="evenodd"><path d="M86.874 58.19c0-.48-.014-.886-.04-1.218a3.643 3.643 0 0 0-.16-.858 2.783 2.783 0 0 0-.32-.659c-.134-.2-.294-.419-.48-.657-.4-.48-.8-.926-1.199-1.338a54.83 54.83 0 0 0-1.24-1.237c-.426-.412-.859-.85-1.299-1.317-.44-.465-.899-.99-1.379-1.576-.533-.612-.846-1.243-.939-1.896-.094-.652-.14-1.443-.14-2.374V40.15c0-3.618 1.705-5.427 5.117-5.427 1.839 0 3.13.445 3.877 1.337.746.892 1.12 2.254 1.12 4.09v5.985h-2.839V40.55c0-.823-.14-1.488-.42-1.994-.28-.506-.833-.76-1.658-.76-1.413 0-2.119.786-2.119 2.356v4.869c0 .691.046 1.197.14 1.516.093.32.286.667.58 1.038.8 1.01 1.619 1.902 2.458 2.673.84.773 1.685 1.663 2.539 2.674.585.693.972 1.411 1.159 2.155.186.745.28 1.769.28 3.074v4.708c0 1.755-.394 3.1-1.18 4.03-.786.932-2.098 1.397-3.937 1.397-1.786 0-3.085-.465-3.898-1.397-.813-.93-1.22-2.275-1.22-4.03v-6.983h2.92v6.544c0 .853.152 1.544.459 2.076.306.531.86.797 1.659.797.772 0 1.325-.206 1.66-.618.332-.413.499-1.017.499-1.816v-4.669zM101.224 41.029c0-.985-.199-1.71-.599-2.175-.4-.465-1.08-.699-2.038-.699h-2.08V49.37h2.12c.878 0 1.532-.226 1.958-.679.426-.452.64-1.183.64-2.195V41.03zM93.47 67.926V35.083h5.136c1.926 0 3.35.479 4.274 1.436.922.959 1.384 2.462 1.384 4.51v5.388c0 2.075-.456 3.578-1.367 4.51-.91.93-2.33 1.395-4.258 1.395h-2.13v15.604h-3.039zM113.177 59.626c-.347-2.82-.693-5.621-1.04-8.4-.346-2.78-.679-5.595-.998-8.442-.347 2.847-.7 5.661-1.06 8.442-.36 2.779-.727 5.58-1.1 8.4h4.198zm1.08 8.3l-.72-5.507h-4.917l-.72 5.508h-2.958l4.517-32.844h3.558l4.278 32.844h-3.039zM126.968 55.875h2.759v6.783c0 1.916-.38 3.333-1.14 4.25-.759.919-1.979 1.377-3.658 1.377-3.49 0-5.236-1.85-5.236-5.548V40.39c0-3.777 1.745-5.666 5.236-5.666 3.199 0 4.798 1.862 4.798 5.586v5.826h-2.759V40.35c0-.877-.148-1.522-.444-1.935-.296-.412-.834-.62-1.614-.62-1.452 0-2.179.853-2.179 2.555v22.348c0 1.73.727 2.594 2.18 2.594.753 0 1.284-.214 1.594-.638.309-.426.463-1.078.463-1.956v-6.823zM133.284 67.927V35.083H142v3.073h-5.677v11.492h3.998v3.074h-3.998v12.21h5.877v2.995h-8.915zM159.148 59.626c-.346-2.82-.694-5.621-1.04-8.4-.347-2.78-.68-5.595-.999-8.442-.346 2.847-.7 5.661-1.06 8.442-.36 2.779-.725 5.58-1.099 8.4h4.198zm1.079 8.3l-.72-5.507h-4.917l-.72 5.508h-2.957l4.518-32.844h3.557l4.278 32.844h-3.04zM174.058 41.029c0-.985-.2-1.71-.6-2.175-.398-.465-1.078-.699-2.04-.699h-2.078V49.37h2.12c.88 0 1.532-.226 1.958-.679.426-.452.64-1.183.64-2.195V41.03zm-7.755 26.897V35.083h5.136c1.927 0 3.35.479 4.273 1.436.923.959 1.385 2.462 1.385 4.51v5.388c0 2.075-.456 3.578-1.368 4.51-.91.93-2.33 1.395-4.259 1.395h-2.13v15.604h-3.037zM187.93 41.029c0-.985-.2-1.71-.6-2.175-.401-.465-1.081-.699-2.04-.699h-2.078V49.37h2.118c.88 0 1.533-.226 1.96-.679.425-.452.64-1.183.64-2.195V41.03zm-7.755 26.897V35.083h5.134c1.926 0 3.352.479 4.274 1.436.922.959 1.384 2.462 1.384 4.51v5.388c0 2.075-.456 3.578-1.367 4.51-.91.93-2.33 1.395-4.258 1.395h-2.13v15.604h-3.037zM200.84 58.19c0-.48-.013-.886-.04-1.218a3.691 3.691 0 0 0-.16-.858 2.771 2.771 0 0 0-.318-.659c-.134-.2-.296-.419-.48-.657-.4-.48-.8-.926-1.2-1.338a53.587 53.587 0 0 0-1.24-1.237 39.91 39.91 0 0 1-1.3-1.317c-.438-.465-.898-.99-1.378-1.576-.533-.612-.846-1.243-.939-1.896-.094-.652-.14-1.443-.14-2.374V40.15c0-3.618 1.706-5.427 5.117-5.427 1.839 0 3.131.445 3.878 1.337.745.892 1.118 2.254 1.118 4.09v5.985h-2.838V40.55c0-.823-.14-1.488-.418-1.994-.281-.506-.835-.76-1.66-.76-1.412 0-2.12.786-2.12 2.356v4.869c0 .691.047 1.197.142 1.516.093.32.285.667.579 1.038.8 1.01 1.62 1.902 2.458 2.673.84.773 1.686 1.663 2.54 2.674.585.693.97 1.411 1.158 2.155.186.745.28 1.769.28 3.074v4.708c0 1.755-.394 3.1-1.18 4.03-.786.932-2.098 1.397-3.937 1.397-1.786 0-3.085-.465-3.897-1.397-.814-.93-1.22-2.275-1.22-4.03v-6.983h2.918v6.544c0 .853.154 1.544.46 2.076.307.531.86.797 1.659.797.772 0 1.325-.206 1.66-.618.332-.413.498-1.017.498-1.816v-4.669z" fill="#09090A"/><path d="M118.842 75.312c.065-.065.074-.177.01-.242-.67-.725-1.442-1.181-2.502-1.181-2.474 0-3.236 1.98-3.236 3.338 0 1.395.762 3.348 3.236 3.348.985 0 1.766-.41 2.445-1.051a.186.186 0 0 0 .01-.251l-.642-.763c-.056-.074-.158-.074-.233-.018-.437.363-1.05.66-1.571.66-1.516 0-1.73-1.441-1.73-1.925 0-.483.214-1.934 1.72-1.934.494 0 1.117.335 1.507.735a.172.172 0 0 0 .233.009l.753-.725zm2.713 2.66h2.408v2.352c0 .093.074.167.167.167h1.144a.167.167 0 0 0 .168-.167v-6.175a.167.167 0 0 0-.168-.167h-1.144a.167.167 0 0 0-.167.167v2.437h-2.408v-2.437a.167.167 0 0 0-.168-.167h-1.162a.167.167 0 0 0-.168.167v6.175c0 .093.075.167.168.167h1.162a.167.167 0 0 0 .168-.167V77.97zm8.462-3.916a.242.242 0 0 0-.447 0l-2.855 6.286c-.027.065.028.15.103.15h1.33a.253.253 0 0 0 .232-.159l.465-1.162h1.916l.464 1.162c.038.093.13.158.233.158h1.33c.074 0 .13-.084.093-.149l-2.864-6.286zm-.214 2.743l.483 1.21h-.976l.493-1.21zm5.858-2.65a.167.167 0 0 0-.167-.167h-1.163a.167.167 0 0 0-.167.167v6.175c0 .093.074.167.167.167h3.515a.167.167 0 0 0 .168-.167v-1.051a.167.167 0 0 0-.168-.167h-2.185v-4.957zm5.338 0a.167.167 0 0 0-.168-.167h-1.162a.167.167 0 0 0-.168.167v6.175c0 .093.075.167.168.167h3.515a.167.167 0 0 0 .167-.167v-1.051a.167.167 0 0 0-.167-.167h-2.185v-4.957zm7.513 3.822a.167.167 0 0 0 .167-.167v-1.051a.167.167 0 0 0-.167-.167h-2.185v-1.219h2.845a.167.167 0 0 0 .168-.167v-1.05a.167.167 0 0 0-.168-.168h-4.166a.167.167 0 0 0-.167.167v6.175c0 .093.074.167.167.167h4.166a.167.167 0 0 0 .168-.167v-1.051a.167.167 0 0 0-.168-.167h-2.845V77.97h2.185zm3.645 2.52a.167.167 0 0 0 .168-.167v-3.246l3.57 3.376c.056.056.13.084.205.084.065 0 .12-.056.12-.121v-6.268a.167.167 0 0 0-.167-.167H154.9a.167.167 0 0 0-.167.167v3.134l-3.534-3.301a.372.372 0 0 0-.241-.093c-.075 0-.13.065-.13.14v6.295c0 .093.074.167.167.167h1.162zm9.718-2.204v.642c-.214.158-.614.27-.93.27-1.507 0-1.72-1.507-1.72-1.99 0-.484.213-1.916 1.72-1.916.455 0 1.041.279 1.432.623a.172.172 0 0 0 .232-.01l.698-.762a.174.174 0 0 0 0-.242c-.633-.623-1.367-1.013-2.362-1.013-2.474 0-3.236 1.98-3.236 3.338 0 1.395.762 3.348 3.236 3.348.958 0 1.692-.316 2.306-.884a.408.408 0 0 0 .12-.288v-2.315a.167.167 0 0 0-.167-.168h-2.399a.167.167 0 0 0-.167.168v1.032c0 .093.074.167.167.167h1.07zm6.704-.316a.167.167 0 0 0 .167-.167v-1.051a.167.167 0 0 0-.167-.167h-2.185v-1.219h2.845a.167.167 0 0 0 .168-.167v-1.05a.167.167 0 0 0-.168-.168h-4.166a.167.167 0 0 0-.167.167v6.175c0 .093.074.167.167.167h4.166a.167.167 0 0 0 .168-.167v-1.051a.167.167 0 0 0-.168-.167h-2.845V77.97h2.185zM130.54 28.491a.167.167 0 0 0 .167-.167v-3.246l3.57 3.376c.056.056.13.083.205.083.065 0 .12-.055.12-.12v-6.268a.167.167 0 0 0-.167-.167h-1.153a.167.167 0 0 0-.167.167v3.134l-3.534-3.301a.372.372 0 0 0-.241-.093c-.075 0-.13.065-.13.14v6.295c0 .093.074.167.167.167h1.162zm8.638-6.435a.242.242 0 0 0-.446 0l-2.855 6.286c-.028.065.028.149.102.149h1.33a.253.253 0 0 0 .232-.158l.465-1.162h1.916l.465 1.162c.037.093.13.158.232.158h1.33c.074 0 .13-.084.093-.149l-2.864-6.286zm-.214 2.743l.484 1.21h-.977l.493-1.21zm7.076-.204c-.725-.26-1.376-.437-1.413-.837-.01-.354.353-.474.744-.474.52 0 1.292.279 1.702.427.093.038.186 0 .223-.083l.418-.958a.181.181 0 0 0-.083-.233c-1.088-.502-1.944-.558-2.353-.558-1.246 0-2.148.726-2.148 1.944 0 1.339 1.18 1.702 2.12 2.008.614.196 1.116.372 1.116.782 0 .325-.41.558-.893.558-.54 0-1.116-.214-1.71-.484-.084-.037-.187-.01-.224.074l-.511.949c-.038.084-.01.186.074.223.79.41 1.525.632 2.427.632 1.423 0 2.408-.883 2.408-2.017 0-1.19-.995-1.637-1.897-1.953zm6.1-2.539a.242.242 0 0 0-.446 0l-2.855 6.286c-.027.065.028.149.103.149h1.33a.253.253 0 0 0 .232-.158l.465-1.162h1.915l.465 1.162c.038.093.13.158.233.158h1.33c.074 0 .13-.084.093-.149l-2.864-6.286zm-.213 2.743l.483 1.21h-.976l.493-1.21z" fill="#E34339"/><path d="M60.73 29.1c-.036.05-.075.1-.112.15a7.17 7.17 0 0 1-.979 1.077 7.178 7.178 0 0 1-1.38.966 6.993 6.993 0 0 1-3.34.852c-3.899 0-7.07-3.168-7.07-7.06 0-.768.13-1.504.358-2.195a7.078 7.078 0 0 1 1.605-2.672c.063-.066.125-.132.191-.196a7.048 7.048 0 0 1 4.917-1.996c3.899 0 7.072 3.166 7.072 7.059a7.007 7.007 0 0 1-1.263 4.015m4.006 21.039C64.735 67.1 50.912 80.9 33.92 80.9S3.105 67.1 3.105 50.14c0-16.962 13.823-30.762 30.815-30.762 4.494 0 8.765.966 12.619 2.7-.341.94-.53 1.952-.53 3.008 0 4.906 3.997 8.897 8.91 8.897 1.616 0 3.13-.433 4.438-1.186a30.549 30.549 0 0 1 5.378 17.343m14.799-28.981a.818.818 0 0 0-1.08-.414L63.45 27.662c.155-.51.264-1.04.325-1.585.03-.017.062-.033.09-.054l7.73-6.172a.818.818 0 0 0-.978-1.309l-6.852 5.47a8.852 8.852 0 0 0-2.051-4.675l6.934-6.767a.818.818 0 0 0-1.103-1.206l-6.998 6.828a8.879 8.879 0 0 0-4.588-1.941l5.42-6.766a.818.818 0 0 0-1.237-1.069l-6.279 7.837c-.67.08-1.317.234-1.933.454L58.988 1.4a.818.818 0 0 0-1.476-.705l-7.985 17.317c-.39.298-.758.625-1.094.982-.136.127-.25.249-.356.367a33.84 33.84 0 0 0-14.157-3.084C15.187 16.277 0 31.437 0 50.14c0 18.7 15.187 33.86 33.92 33.86 18.734 0 33.92-15.16 33.92-33.86a33.663 33.663 0 0 0-6.088-19.358c.08-.095.164-.195.25-.303.13-.17.252-.344.37-.522l.014-.005 16.734-7.715a.815.815 0 0 0 .414-1.078" fill="#09090A"/></g></svg>